# xmcd CD database file
#
# Track frame offsets:
#	150
#	15048
#	29498
#	41808
#	55053
#	67300
#	88601
#	100394
#	117528
#	133110
#	145363
#	162099
#	176666
#
# Disc length: 2591 seconds
#
# Revision: 0
# Processed by: cddbd v1.5.2PL0 Copyright (c) Steve Scherf et al.
# Submitted via: CDex 1.51
#
DISCID=b80a1d0d
DTITLE=Anson Funderburgh and The Rockets - Which Way Is Texas
DYEAR=1900
DGENRE=Blues
TTITLE0=Can We Get Together
TTITLE1=One Woman I Need
TTITLE2=Tryin´ To Get Back On My Feet
TTITLE3=Rambling Woman
TTITLE4=Some Sunny Day
TTITLE5=Going My Way
TTITLE6=The Last Time
TTITLE7=Don´t Turn This Child Away From Heaven
TTITLE8=Hoodoo Party
TTITLE9=Toss And Turn
TTITLE10=Jungle
TTITLE11=I Need To Know
TTITLE12=Look On Yonder Wall
EXTD=
EXTT0=
EXTT1=
EXTT2=
EXTT3=
EXTT4=
EXTT5=
EXTT6=
EXTT7=
EXTT8=
EXTT9=
EXTT10=
EXTT11=
EXTT12=
PLAYORDER=
